<svg xmlns="http://www.w3.org/2000/svg" xmlns:xlink="http://www.w3.org/1999/xlink" width="500" zoomAndPan="magnify" viewBox="0 0 375 374.999991" height="500" preserveAspectRatio="xMidYMid meet" version="1.0"><defs><g/><clipPath id="af9fcb7bdb"><path d="M 153 157 L 288.101562 157 L 288.101562 240 L 153 240 Z M 153 157 " clip-rule="nonzero"/></clipPath><clipPath id="c5da9d5520"><path d="M 96.101562 48.46875 L 274 48.46875 L 274 248.71875 L 96.101562 248.71875 Z M 96.101562 48.46875 " clip-rule="nonzero"/></clipPath></defs><g clip-path="url(#af9fcb7bdb)"><path fill="#00c2cb" d="M 251.824219 205.8125 C 257.839844 195.296875 261.277344 183.117188 261.277344 170.136719 C 261.277344 165.84375 260.898438 161.640625 260.179688 157.558594 C 257.265625 173.753906 248.65625 187.972656 236.496094 198.054688 C 229.457031 203.890625 218.984375 202.707031 213.476562 195.410156 L 203.199219 181.792969 C 201.488281 179.527344 198.8125 178.195312 195.976562 178.195312 L 156.816406 178.195312 C 156.808594 178.195312 156.796875 178.199219 156.789062 178.199219 C 154.117188 178.214844 152.386719 181.035156 153.585938 183.429688 L 155.144531 186.53125 C 158.042969 192.304688 163.75 196.140625 170.1875 196.648438 L 172.507812 196.832031 L 182.664062 197.632812 C 185.535156 197.859375 188.128906 199.449219 189.632812 201.90625 L 194.238281 209.441406 L 196.816406 213.660156 L 211.265625 237.289062 C 211.519531 237.710938 211.84375 238.078125 212.210938 238.386719 C 213.269531 239.269531 214.703125 239.640625 216.09375 239.296875 C 216.105469 239.292969 216.113281 239.289062 216.125 239.289062 C 253.597656 230.039062 282.464844 198.957031 288.457031 160.308594 C 283.199219 180.136719 269.6875 196.605469 251.824219 205.8125 " fill-opacity="1" fill-rule="nonzero"/></g><g clip-path="url(#c5da9d5520)"><path fill="#003479" d="M 186.871094 203.597656 C 185.910156 202.027344 184.242188 201.003906 182.40625 200.859375 L 169.933594 199.875 C 162.410156 199.285156 155.636719 194.730469 152.25 187.988281 L 150.773438 185.046875 C 149.726562 182.957031 149.703125 180.457031 150.859375 178.421875 C 152.054688 176.324219 154.210938 175.035156 156.601562 174.960938 L 156.816406 174.957031 L 169.355469 174.957031 C 165.265625 168.503906 157.898438 164.875 150.277344 165.589844 L 137.246094 166.804688 C 131.667969 167.328125 126.652344 163.480469 125.625 157.96875 C 124.863281 153.886719 124.464844 149.675781 124.464844 145.367188 C 124.464844 123.539062 134.6875 104.101562 150.605469 91.578125 C 134.835938 101.960938 122.5625 117.222656 115.941406 135.21875 C 121.90625 91.867188 159.089844 58.476562 204.082031 58.476562 C 231.933594 58.476562 256.789062 71.273438 273.105469 91.304688 C 255.765625 65.625 226.425781 48.714844 193.125 48.628906 C 139.828125 48.488281 96.207031 91.921875 96.128906 145.222656 C 96.101562 163.984375 101.421875 181.503906 110.640625 196.34375 C 110.835938 196.65625 111.027344 196.96875 111.226562 197.28125 L 124.140625 195.09375 C 129.90625 194.117188 134.65625 199.691406 132.695312 205.207031 C 132.640625 205.359375 132.605469 205.441406 132.605469 205.441406 C 140.917969 208.464844 139.515625 216.5625 139.515625 216.5625 C 146.859375 219.910156 143.835938 226.820312 143.835938 226.820312 C 146.429688 227.894531 147.339844 229.992188 147.574219 230.675781 C 147.695312 231.027344 147.828125 231.375 147.964844 231.71875 L 152.984375 244.605469 C 153.847656 246.820312 156.5 248.632812 158.875 248.632812 C 161.878906 248.632812 163.953125 245.632812 162.898438 242.824219 L 160.546875 236.570312 L 157.414062 228.226562 C 157.195312 227.644531 157.59375 227.003906 158.226562 226.957031 C 158.640625 226.929688 159.023438 227.199219 159.179688 227.582031 L 163.300781 237.5 L 166.347656 244.839844 C 167.398438 247.367188 170.167969 248.816406 172.796875 248.050781 C 175.945312 247.132812 177.511719 243.605469 176.089844 240.65625 C 176.089844 240.652344 176.085938 240.648438 176.085938 240.648438 L 168.542969 225.066406 C 168.21875 224.398438 168.660156 223.613281 169.402344 223.539062 C 169.828125 223.5 170.238281 223.71875 170.441406 224.097656 L 179.621094 241.203125 L 180.757812 243.324219 C 181.882812 245.414062 184.339844 246.503906 186.59375 245.757812 C 188.34375 245.179688 189.511719 243.714844 189.820312 242.058594 C 190.007812 241.046875 189.878906 239.964844 189.367188 238.96875 L 182.183594 225.050781 C 181.867188 224.4375 182.097656 223.652344 182.738281 223.386719 C 183.300781 223.152344 183.933594 223.394531 184.210938 223.914062 L 192.328125 239.25 C 192.980469 240.488281 193.960938 241.449219 195.101562 242.082031 C 197.003906 243.136719 199.363281 243.289062 201.46875 242.292969 C 201.875 242.105469 202.25 241.871094 202.597656 241.621094 C 205.476562 239.53125 206.378906 235.507812 204.449219 232.347656 L 186.871094 203.597656 " fill-opacity="1" fill-rule="nonzero"/></g><path fill="#00c2cb" d="M 116.691406 209.414062 L 126.851562 207.726562 C 129.898438 207.21875 131.957031 204.339844 131.453125 201.292969 C 130.949219 198.246094 128.066406 196.183594 125.019531 196.6875 L 114.859375 198.375 C 111.8125 198.878906 109.753906 201.761719 110.257812 204.808594 C 110.761719 207.855469 113.644531 209.917969 116.691406 209.414062 " fill-opacity="1" fill-rule="nonzero"/><path fill="#00c2cb" d="M 136.636719 212.304688 C 136.128906 209.257812 133.25 207.195312 130.199219 207.703125 L 116.335938 210.351562 C 113.289062 210.859375 111.226562 213.738281 111.734375 216.785156 C 112.238281 219.832031 115.121094 221.894531 118.167969 221.390625 L 132.03125 218.738281 C 135.082031 218.234375 137.140625 215.351562 136.636719 212.304688 " fill-opacity="1" fill-rule="nonzero"/><path fill="#00c2cb" d="M 141.316406 223.824219 C 140.808594 220.773438 137.929688 218.710938 134.878906 219.21875 L 124.722656 220.902344 C 121.675781 221.410156 119.613281 224.289062 120.117188 227.339844 C 120.625 230.386719 123.503906 232.445312 126.554688 231.941406 L 136.710938 230.257812 C 139.757812 229.75 141.820312 226.871094 141.316406 223.824219 " fill-opacity="1" fill-rule="nonzero"/><path fill="#00c2cb" d="M 141.933594 230.015625 L 133.59375 231.34375 C 130.542969 231.847656 128.484375 234.730469 128.988281 237.777344 C 129.496094 240.824219 132.375 242.886719 135.421875 242.382812 L 143.765625 241.054688 C 146.8125 240.546875 148.875 237.667969 148.367188 234.617188 C 147.863281 231.570312 144.980469 229.511719 141.933594 230.015625 " fill-opacity="1" fill-rule="nonzero"/><g fill="#003479" fill-opacity="1"><g transform="translate(67.859067, 273.196413)"><g><path d="M 0.84375 -18.703125 L 0.84375 -20.9375 C 0.84375 -21.351562 1.050781 -21.5625 1.46875 -21.5625 L 16.25 -21.5625 C 16.4375 -21.5625 16.582031 -21.503906 16.6875 -21.390625 C 16.800781 -21.273438 16.859375 -21.125 16.859375 -20.9375 L 16.859375 -18.703125 C 16.859375 -18.273438 16.65625 -18.0625 16.25 -18.0625 L 10.828125 -18.0625 L 10.828125 -0.609375 C 10.828125 -0.191406 10.613281 0.015625 10.1875 0.015625 L 7.453125 0.015625 C 7.035156 0.015625 6.828125 -0.191406 6.828125 -0.609375 L 6.828125 -18.0625 L 1.46875 -18.0625 C 1.269531 -18.0625 1.113281 -18.113281 1 -18.21875 C 0.894531 -18.332031 0.84375 -18.492188 0.84375 -18.703125 Z M 0.84375 -18.703125 "/></g></g></g><g fill="#003479" fill-opacity="1"><g transform="translate(88.455822, 273.196413)"><g><path d="M 18.1875 -3.8125 C 18.445312 -3.8125 18.65625 -3.738281 18.8125 -3.59375 C 18.96875 -3.445312 19.046875 -3.253906 19.046875 -3.015625 L 19.046875 -0.625 C 19.046875 -0.4375 18.988281 -0.285156 18.875 -0.171875 C 18.757812 -0.0546875 18.601562 0 18.40625 0 L 3.203125 0 C 2.773438 0 2.5625 -0.207031 2.5625 -0.625 L 2.5625 -20.921875 C 2.5625 -21.347656 2.773438 -21.5625 3.203125 -21.5625 L 18.109375 -21.5625 C 18.316406 -21.5625 18.472656 -21.503906 18.578125 -21.390625 C 18.691406 -21.273438 18.75 -21.125 18.75 -20.9375 L 18.75 -18.421875 C 18.75 -17.984375 18.535156 -17.765625 18.109375 -17.765625 L 6.59375 -17.765625 L 6.59375 -11.8125 L 15.609375 -11.8125 C 15.835938 -11.8125 16.019531 -11.753906 16.15625 -11.640625 C 16.289062 -11.523438 16.359375 -11.359375 16.359375 -11.140625 L 16.359375 -8.78125 C 16.359375 -8.582031 16.289062 -8.425781 16.15625 -8.3125 C 16.019531 -8.195312 15.835938 -8.140625 15.609375 -8.140625 L 6.59375 -8.140625 L 6.59375 -3.8125 Z M 18.1875 -3.8125 "/></g></g></g><g fill="#003479" fill-opacity="1"><g transform="translate(111.863494, 273.196413)"><g><path d="M 20.890625 -0.703125 C 20.984375 -0.492188 20.984375 -0.316406 20.890625 -0.171875 C 20.804688 -0.0351562 20.648438 0.03125 20.421875 0.03125 L 17.359375 0.03125 C 17.203125 0.03125 17.054688 -0.0195312 16.921875 -0.125 C 16.796875 -0.238281 16.703125 -0.375 16.640625 -0.53125 L 15.78125 -2.625 L 5.859375 -2.625 L 5 -0.546875 C 4.925781 -0.390625 4.828125 -0.253906 4.703125 -0.140625 C 4.585938 -0.0351562 4.441406 0.015625 4.265625 0.015625 L 1.21875 0.015625 C 0.976562 0.015625 0.8125 -0.0507812 0.71875 -0.1875 C 0.632812 -0.320312 0.640625 -0.492188 0.734375 -0.703125 L 9.921875 -21.296875 C 9.992188 -21.460938 10.101562 -21.59375 10.25 -21.6875 C 10.40625 -21.789062 10.554688 -21.84375 10.703125 -21.84375 L 10.890625 -21.84375 C 11.054688 -21.84375 11.207031 -21.789062 11.34375 -21.6875 C 11.488281 -21.582031 11.597656 -21.445312 11.671875 -21.28125 Z M 7.265625 -6.0625 L 14.359375 -6.0625 L 10.8125 -14.65625 Z M 7.265625 -6.0625 "/></g></g></g><g fill="#003479" fill-opacity="1"><g transform="translate(136.392699, 273.196413)"><g><path d="M 25.6875 -0.640625 C 25.707031 -0.410156 25.660156 -0.242188 25.546875 -0.140625 C 25.429688 -0.0351562 25.269531 0.015625 25.0625 0.015625 L 22.3125 0.015625 C 22.101562 0.015625 21.945312 -0.03125 21.84375 -0.125 C 21.738281 -0.21875 21.675781 -0.375 21.65625 -0.59375 L 20.625 -11.125 L 14.234375 -0.25 C 14.109375 -0.0507812 14 0.0859375 13.90625 0.171875 C 13.820312 0.265625 13.695312 0.3125 13.53125 0.3125 L 13.515625 0.3125 C 13.335938 0.3125 13.207031 0.265625 13.125 0.171875 C 13.039062 0.0859375 12.9375 -0.0507812 12.8125 -0.25 L 6.421875 -11.125 L 5.375 -0.59375 C 5.351562 -0.375 5.289062 -0.21875 5.1875 -0.125 C 5.082031 -0.03125 4.929688 0.015625 4.734375 0.015625 L 1.96875 0.015625 C 1.757812 0.015625 1.597656 -0.0351562 1.484375 -0.140625 C 1.367188 -0.242188 1.320312 -0.410156 1.34375 -0.640625 L 3.4375 -21.375 C 3.46875 -21.71875 3.644531 -21.890625 3.96875 -21.890625 L 4.046875 -21.890625 C 4.222656 -21.890625 4.34375 -21.84375 4.40625 -21.75 C 4.476562 -21.664062 4.5625 -21.546875 4.65625 -21.390625 L 13.515625 -6.359375 L 22.375 -21.390625 C 22.46875 -21.546875 22.546875 -21.664062 22.609375 -21.75 C 22.679688 -21.84375 22.804688 -21.890625 22.984375 -21.890625 L 23.046875 -21.890625 C 23.367188 -21.890625 23.550781 -21.71875 23.59375 -21.375 Z M 25.6875 -0.640625 "/></g></g></g><g fill="#003479" fill-opacity="1"><g transform="translate(166.316592, 273.196413)"><g><path d="M 16.328125 -3.515625 C 16.640625 -3.515625 16.796875 -3.351562 16.796875 -3.03125 L 16.796875 -0.484375 C 16.796875 -0.160156 16.640625 0 16.328125 0 L 3.046875 0 C 2.722656 0 2.5625 -0.160156 2.5625 -0.484375 L 2.5625 -21.109375 C 2.5625 -21.429688 2.722656 -21.59375 3.046875 -21.59375 L 6.125 -21.59375 C 6.4375 -21.59375 6.59375 -21.429688 6.59375 -21.109375 L 6.59375 -3.515625 Z M 16.328125 -3.515625 "/></g></g></g><g fill="#003479" fill-opacity="1"><g transform="translate(186.572636, 273.196413)"><g><path d="M 20.890625 -0.703125 C 20.984375 -0.492188 20.984375 -0.316406 20.890625 -0.171875 C 20.804688 -0.0351562 20.648438 0.03125 20.421875 0.03125 L 17.359375 0.03125 C 17.203125 0.03125 17.054688 -0.0195312 16.921875 -0.125 C 16.796875 -0.238281 16.703125 -0.375 16.640625 -0.53125 L 15.78125 -2.625 L 5.859375 -2.625 L 5 -0.546875 C 4.925781 -0.390625 4.828125 -0.253906 4.703125 -0.140625 C 4.585938 -0.0351562 4.441406 0.015625 4.265625 0.015625 L 1.21875 0.015625 C 0.976562 0.015625 0.8125 -0.0507812 0.71875 -0.1875 C 0.632812 -0.320312 0.640625 -0.492188 0.734375 -0.703125 L 9.921875 -21.296875 C 9.992188 -21.460938 10.101562 -21.59375 10.25 -21.6875 C 10.40625 -21.789062 10.554688 -21.84375 10.703125 -21.84375 L 10.890625 -21.84375 C 11.054688 -21.84375 11.207031 -21.789062 11.34375 -21.6875 C 11.488281 -21.582031 11.597656 -21.445312 11.671875 -21.28125 Z M 7.265625 -6.0625 L 14.359375 -6.0625 L 10.8125 -14.65625 Z M 7.265625 -6.0625 "/></g></g></g><g fill="#003479" fill-opacity="1"><g transform="translate(211.101847, 273.196413)"><g><path d="M 21.296875 -21.59375 C 21.617188 -21.59375 21.78125 -21.4375 21.78125 -21.125 L 21.78125 -0.390625 C 21.78125 -0.179688 21.722656 -0.0195312 21.609375 0.09375 C 21.503906 0.21875 21.375 0.28125 21.21875 0.28125 L 21.203125 0.28125 C 21.015625 0.28125 20.859375 0.226562 20.734375 0.125 C 20.617188 0.0195312 20.476562 -0.0976562 20.3125 -0.234375 L 6.59375 -13.265625 L 6.59375 -0.453125 C 6.59375 -0.140625 6.4375 0.015625 6.125 0.015625 L 3.046875 0.015625 C 2.722656 0.015625 2.5625 -0.140625 2.5625 -0.453125 L 2.5625 -21.21875 C 2.5625 -21.40625 2.613281 -21.554688 2.71875 -21.671875 C 2.820312 -21.785156 2.945312 -21.84375 3.09375 -21.84375 L 3.15625 -21.84375 C 3.300781 -21.84375 3.429688 -21.789062 3.546875 -21.6875 C 3.660156 -21.582031 3.796875 -21.46875 3.953125 -21.34375 L 17.78125 -8.25 L 17.78125 -21.125 C 17.78125 -21.4375 17.9375 -21.59375 18.25 -21.59375 Z M 21.296875 -21.59375 "/></g></g></g><g fill="#003479" fill-opacity="1"><g transform="translate(238.356795, 273.196413)"><g><path d="M 16.828125 -5.1875 C 17.003906 -5.3125 17.1875 -5.367188 17.375 -5.359375 C 17.5625 -5.359375 17.703125 -5.289062 17.796875 -5.15625 L 19.40625 -2.6875 C 19.476562 -2.582031 19.488281 -2.445312 19.4375 -2.28125 C 19.382812 -2.125 19.273438 -1.988281 19.109375 -1.875 C 18.546875 -1.425781 17.894531 -1.035156 17.15625 -0.703125 C 16.425781 -0.378906 15.664062 -0.125 14.875 0.0625 C 14.082031 0.25 13.316406 0.34375 12.578125 0.34375 C 11.316406 0.34375 10.117188 0.160156 8.984375 -0.203125 C 7.847656 -0.566406 6.8125 -1.082031 5.875 -1.75 C 4.9375 -2.425781 4.125 -3.222656 3.4375 -4.140625 C 2.75 -5.066406 2.21875 -6.085938 1.84375 -7.203125 C 1.46875 -8.328125 1.28125 -9.515625 1.28125 -10.765625 C 1.28125 -12.015625 1.46875 -13.195312 1.84375 -14.3125 C 2.21875 -15.425781 2.75 -16.445312 3.4375 -17.375 C 4.125 -18.300781 4.9375 -19.097656 5.875 -19.765625 C 6.8125 -20.441406 7.847656 -20.960938 8.984375 -21.328125 C 10.117188 -21.703125 11.316406 -21.890625 12.578125 -21.890625 C 13.296875 -21.890625 14.050781 -21.800781 14.84375 -21.625 C 15.644531 -21.445312 16.421875 -21.1875 17.171875 -20.84375 C 17.929688 -20.507812 18.609375 -20.109375 19.203125 -19.640625 C 19.378906 -19.503906 19.472656 -19.359375 19.484375 -19.203125 C 19.503906 -19.054688 19.476562 -18.925781 19.40625 -18.8125 L 17.796875 -16.375 C 17.710938 -16.25 17.582031 -16.171875 17.40625 -16.140625 C 17.238281 -16.117188 17.0625 -16.1875 16.875 -16.34375 C 16.269531 -16.851562 15.582031 -17.238281 14.8125 -17.5 C 14.050781 -17.769531 13.304688 -17.90625 12.578125 -17.90625 C 11.566406 -17.90625 10.617188 -17.722656 9.734375 -17.359375 C 8.847656 -16.992188 8.070312 -16.484375 7.40625 -15.828125 C 6.738281 -15.171875 6.21875 -14.410156 5.84375 -13.546875 C 5.46875 -12.679688 5.28125 -11.753906 5.28125 -10.765625 C 5.28125 -9.765625 5.46875 -8.832031 5.84375 -7.96875 C 6.226562 -7.113281 6.753906 -6.363281 7.421875 -5.71875 C 8.085938 -5.070312 8.859375 -4.566406 9.734375 -4.203125 C 10.617188 -3.835938 11.566406 -3.65625 12.578125 -3.65625 C 13.273438 -3.65625 14.007812 -3.785156 14.78125 -4.046875 C 15.550781 -4.316406 16.234375 -4.695312 16.828125 -5.1875 Z M 16.828125 -5.1875 "/></g></g></g><g fill="#003479" fill-opacity="1"><g transform="translate(262.176166, 273.196413)"><g><path d="M 18.1875 -3.8125 C 18.445312 -3.8125 18.65625 -3.738281 18.8125 -3.59375 C 18.96875 -3.445312 19.046875 -3.253906 19.046875 -3.015625 L 19.046875 -0.625 C 19.046875 -0.4375 18.988281 -0.285156 18.875 -0.171875 C 18.757812 -0.0546875 18.601562 0 18.40625 0 L 3.203125 0 C 2.773438 0 2.5625 -0.207031 2.5625 -0.625 L 2.5625 -20.921875 C 2.5625 -21.347656 2.773438 -21.5625 3.203125 -21.5625 L 18.109375 -21.5625 C 18.316406 -21.5625 18.472656 -21.503906 18.578125 -21.390625 C 18.691406 -21.273438 18.75 -21.125 18.75 -20.9375 L 18.75 -18.421875 C 18.75 -17.984375 18.535156 -17.765625 18.109375 -17.765625 L 6.59375 -17.765625 L 6.59375 -11.8125 L 15.609375 -11.8125 C 15.835938 -11.8125 16.019531 -11.753906 16.15625 -11.640625 C 16.289062 -11.523438 16.359375 -11.359375 16.359375 -11.140625 L 16.359375 -8.78125 C 16.359375 -8.582031 16.289062 -8.425781 16.15625 -8.3125 C 16.019531 -8.195312 15.835938 -8.140625 15.609375 -8.140625 L 6.59375 -8.140625 L 6.59375 -3.8125 Z M 18.1875 -3.8125 "/></g></g></g><g fill="#003479" fill-opacity="1"><g transform="translate(285.583844, 273.196413)"><g><path d="M 16.109375 -6.375 L 19.015625 -0.71875 C 19.117188 -0.507812 19.128906 -0.332031 19.046875 -0.1875 C 18.972656 -0.0507812 18.820312 0.015625 18.59375 0.015625 L 15.46875 0.015625 C 15.34375 0.015625 15.207031 -0.03125 15.0625 -0.125 C 14.925781 -0.226562 14.820312 -0.359375 14.75 -0.515625 L 12.515625 -5.078125 C 12.285156 -5.046875 12.046875 -5.019531 11.796875 -5 C 11.546875 -4.988281 11.296875 -4.984375 11.046875 -4.984375 L 6.59375 -4.984375 L 6.59375 -0.609375 C 6.59375 -0.421875 6.53125 -0.269531 6.40625 -0.15625 C 6.28125 -0.0390625 6.125 0.015625 5.9375 0.015625 L 3.203125 0.015625 C 3.023438 0.015625 2.875 -0.0390625 2.75 -0.15625 C 2.625 -0.269531 2.5625 -0.421875 2.5625 -0.609375 L 2.5625 -20.953125 C 2.5625 -21.128906 2.625 -21.273438 2.75 -21.390625 C 2.875 -21.503906 3.023438 -21.5625 3.203125 -21.5625 L 3.921875 -21.5625 C 4.335938 -21.5625 4.742188 -21.5625 5.140625 -21.5625 C 5.546875 -21.5625 5.832031 -21.5625 6 -21.5625 L 11.046875 -21.5625 C 12.316406 -21.5625 13.476562 -21.351562 14.53125 -20.9375 C 15.59375 -20.53125 16.515625 -19.953125 17.296875 -19.203125 C 18.078125 -18.460938 18.679688 -17.578125 19.109375 -16.546875 C 19.546875 -15.523438 19.765625 -14.410156 19.765625 -13.203125 C 19.765625 -11.734375 19.4375 -10.410156 18.78125 -9.234375 C 18.125 -8.054688 17.234375 -7.101562 16.109375 -6.375 Z M 10.796875 -8.328125 C 11.753906 -8.328125 12.609375 -8.535156 13.359375 -8.953125 C 14.109375 -9.367188 14.695312 -9.945312 15.125 -10.6875 C 15.550781 -11.425781 15.765625 -12.273438 15.765625 -13.234375 C 15.765625 -13.929688 15.632812 -14.570312 15.375 -15.15625 C 15.125 -15.75 14.773438 -16.257812 14.328125 -16.6875 C 13.890625 -17.125 13.367188 -17.460938 12.765625 -17.703125 C 12.160156 -17.941406 11.503906 -18.0625 10.796875 -18.0625 L 6.59375 -18.0625 L 6.59375 -8.328125 Z M 10.796875 -8.328125 "/></g></g></g><g fill="#545454" fill-opacity="1"><g transform="translate(46.293214, 290.245464)"><g><path d="M 0.234375 -5.34375 L 0.234375 -5.984375 C 0.234375 -6.109375 0.296875 -6.171875 0.421875 -6.171875 L 4.640625 -6.171875 C 4.691406 -6.171875 4.734375 -6.148438 4.765625 -6.109375 C 4.796875 -6.078125 4.8125 -6.035156 4.8125 -5.984375 L 4.8125 -5.34375 C 4.8125 -5.21875 4.753906 -5.15625 4.640625 -5.15625 L 3.09375 -5.15625 L 3.09375 -0.171875 C 3.09375 -0.0546875 3.035156 0 2.921875 0 L 2.125 0 C 2.007812 0 1.953125 -0.0546875 1.953125 -0.171875 L 1.953125 -5.15625 L 0.421875 -5.15625 C 0.367188 -5.15625 0.320312 -5.171875 0.28125 -5.203125 C 0.25 -5.234375 0.234375 -5.28125 0.234375 -5.34375 Z M 0.234375 -5.34375 "/></g></g></g><g fill="#545454" fill-opacity="1"><g transform="translate(57.994454, 290.245464)"><g><path d="M 5.203125 -1.09375 C 5.273438 -1.09375 5.332031 -1.070312 5.375 -1.03125 C 5.425781 -0.988281 5.453125 -0.929688 5.453125 -0.859375 L 5.453125 -0.171875 C 5.453125 -0.117188 5.429688 -0.078125 5.390625 -0.046875 C 5.359375 -0.015625 5.316406 0 5.265625 0 L 0.921875 0 C 0.796875 0 0.734375 -0.0546875 0.734375 -0.171875 L 0.734375 -5.984375 C 0.734375 -6.109375 0.796875 -6.171875 0.921875 -6.171875 L 5.171875 -6.171875 C 5.234375 -6.171875 5.28125 -6.148438 5.3125 -6.109375 C 5.34375 -6.078125 5.359375 -6.035156 5.359375 -5.984375 L 5.359375 -5.265625 C 5.359375 -5.140625 5.296875 -5.078125 5.171875 -5.078125 L 1.890625 -5.078125 L 1.890625 -3.375 L 4.453125 -3.375 C 4.523438 -3.375 4.578125 -3.359375 4.609375 -3.328125 C 4.648438 -3.296875 4.671875 -3.25 4.671875 -3.1875 L 4.671875 -2.515625 C 4.671875 -2.453125 4.648438 -2.40625 4.609375 -2.375 C 4.578125 -2.34375 4.523438 -2.328125 4.453125 -2.328125 L 1.890625 -2.328125 L 1.890625 -1.09375 Z M 5.203125 -1.09375 "/></g></g></g><g fill="#545454" fill-opacity="1"><g transform="translate(70.498927, 290.245464)"><g><path d="M 5.96875 -0.203125 C 6 -0.140625 6 -0.0859375 5.96875 -0.046875 C 5.945312 -0.00390625 5.90625 0.015625 5.84375 0.015625 L 4.96875 0.015625 C 4.914062 0.015625 4.867188 0 4.828125 -0.03125 C 4.796875 -0.0625 4.769531 -0.101562 4.75 -0.15625 L 4.515625 -0.75 L 1.671875 -0.75 L 1.421875 -0.15625 C 1.410156 -0.113281 1.382812 -0.078125 1.34375 -0.046875 C 1.3125 -0.015625 1.269531 0 1.21875 0 L 0.34375 0 C 0.28125 0 0.234375 -0.015625 0.203125 -0.046875 C 0.179688 -0.0859375 0.1875 -0.140625 0.21875 -0.203125 L 2.84375 -6.09375 C 2.863281 -6.132812 2.894531 -6.171875 2.9375 -6.203125 C 2.976562 -6.234375 3.019531 -6.25 3.0625 -6.25 L 3.109375 -6.25 C 3.160156 -6.25 3.203125 -6.234375 3.234375 -6.203125 C 3.273438 -6.171875 3.3125 -6.128906 3.34375 -6.078125 Z M 2.078125 -1.734375 L 4.109375 -1.734375 L 3.09375 -4.1875 Z M 2.078125 -1.734375 "/></g></g></g><g fill="#545454" fill-opacity="1"><g transform="translate(83.323883, 290.245464)"><g><path d="M 7.34375 -0.1875 C 7.34375 -0.113281 7.328125 -0.0625 7.296875 -0.03125 C 7.265625 -0.0078125 7.21875 0 7.15625 0 L 6.375 0 C 6.320312 0 6.28125 -0.0078125 6.25 -0.03125 C 6.21875 -0.0625 6.195312 -0.109375 6.1875 -0.171875 L 5.890625 -3.1875 L 4.0625 -0.078125 C 4.03125 -0.015625 4 0.0234375 3.96875 0.046875 C 3.945312 0.078125 3.914062 0.09375 3.875 0.09375 L 3.859375 0.09375 C 3.804688 0.09375 3.769531 0.078125 3.75 0.046875 C 3.726562 0.0234375 3.695312 -0.015625 3.65625 -0.078125 L 1.828125 -3.171875 L 1.53125 -0.171875 C 1.53125 -0.109375 1.515625 -0.0625 1.484375 -0.03125 C 1.453125 -0.0078125 1.410156 0 1.359375 0 L 0.5625 0 C 0.5 0 0.453125 -0.0078125 0.421875 -0.03125 C 0.390625 -0.0625 0.378906 -0.113281 0.390625 -0.1875 L 0.984375 -6.109375 C 0.992188 -6.210938 1.046875 -6.265625 1.140625 -6.265625 L 1.15625 -6.265625 C 1.207031 -6.265625 1.242188 -6.25 1.265625 -6.21875 C 1.285156 -6.195312 1.304688 -6.160156 1.328125 -6.109375 L 3.859375 -1.8125 L 6.390625 -6.109375 C 6.421875 -6.160156 6.445312 -6.195312 6.46875 -6.21875 C 6.488281 -6.25 6.523438 -6.265625 6.578125 -6.265625 L 6.59375 -6.265625 C 6.675781 -6.265625 6.726562 -6.210938 6.75 -6.109375 Z M 7.34375 -0.1875 "/></g></g></g><g fill="#545454" fill-opacity="1"><g transform="translate(97.690394, 290.245464)"><g/></g></g><g fill="#545454" fill-opacity="1"><g transform="translate(106.94948, 290.245464)"><g><path d="M 1.765625 -6.03125 L 1.765625 -2.53125 C 1.765625 -2.3125 1.800781 -2.109375 1.875 -1.921875 C 1.945312 -1.742188 2.046875 -1.585938 2.171875 -1.453125 C 2.304688 -1.316406 2.460938 -1.207031 2.640625 -1.125 C 2.816406 -1.050781 3.007812 -1.015625 3.21875 -1.015625 C 3.4375 -1.015625 3.628906 -1.050781 3.796875 -1.125 C 3.972656 -1.207031 4.125 -1.316406 4.25 -1.453125 C 4.382812 -1.585938 4.488281 -1.742188 4.5625 -1.921875 C 4.632812 -2.109375 4.671875 -2.3125 4.671875 -2.53125 L 4.671875 -6.03125 C 4.671875 -6.125 4.722656 -6.171875 4.828125 -6.171875 L 5.671875 -6.171875 C 5.773438 -6.171875 5.828125 -6.125 5.828125 -6.03125 L 5.828125 -2.515625 C 5.828125 -2.128906 5.757812 -1.773438 5.625 -1.453125 C 5.5 -1.140625 5.320312 -0.863281 5.09375 -0.625 C 4.863281 -0.394531 4.585938 -0.21875 4.265625 -0.09375 C 3.953125 0.03125 3.601562 0.09375 3.21875 0.09375 C 2.832031 0.09375 2.476562 0.03125 2.15625 -0.09375 C 1.84375 -0.21875 1.570312 -0.394531 1.34375 -0.625 C 1.113281 -0.863281 0.9375 -1.144531 0.8125 -1.46875 C 0.6875 -1.789062 0.625 -2.144531 0.625 -2.53125 L 0.625 -6.03125 C 0.625 -6.125 0.671875 -6.171875 0.765625 -6.171875 L 1.640625 -6.171875 C 1.722656 -6.171875 1.765625 -6.125 1.765625 -6.03125 Z M 1.765625 -6.03125 "/></g></g></g><g fill="#545454" fill-opacity="1"><g transform="translate(120.042177, 290.245464)"><g><path d="M 2.6875 -6.171875 C 3.082031 -6.171875 3.445312 -6.109375 3.78125 -5.984375 C 4.113281 -5.859375 4.398438 -5.6875 4.640625 -5.46875 C 4.890625 -5.25 5.078125 -4.988281 5.203125 -4.6875 C 5.335938 -4.394531 5.40625 -4.070312 5.40625 -3.71875 C 5.40625 -3.363281 5.335938 -3.035156 5.203125 -2.734375 C 5.078125 -2.441406 4.890625 -2.1875 4.640625 -1.96875 C 4.398438 -1.757812 4.113281 -1.59375 3.78125 -1.46875 C 3.445312 -1.351562 3.082031 -1.296875 2.6875 -1.296875 L 1.890625 -1.296875 L 1.890625 -0.171875 C 1.890625 -0.117188 1.867188 -0.078125 1.828125 -0.046875 C 1.796875 -0.015625 1.753906 0 1.703125 0 L 0.921875 0 C 0.859375 0 0.8125 -0.015625 0.78125 -0.046875 C 0.75 -0.078125 0.734375 -0.117188 0.734375 -0.171875 L 0.734375 -5.984375 C 0.734375 -6.035156 0.75 -6.078125 0.78125 -6.109375 C 0.820312 -6.148438 0.867188 -6.171875 0.921875 -6.171875 L 1.328125 -6.171875 C 1.421875 -6.171875 1.5 -6.171875 1.5625 -6.171875 C 1.632812 -6.171875 1.6875 -6.171875 1.71875 -6.171875 Z M 2.625 -2.3125 C 2.863281 -2.3125 3.082031 -2.34375 3.28125 -2.40625 C 3.476562 -2.476562 3.648438 -2.578125 3.796875 -2.703125 C 3.941406 -2.828125 4.054688 -2.972656 4.140625 -3.140625 C 4.222656 -3.316406 4.265625 -3.515625 4.265625 -3.734375 C 4.265625 -3.941406 4.222656 -4.128906 4.140625 -4.296875 C 4.054688 -4.472656 3.941406 -4.625 3.796875 -4.75 C 3.648438 -4.882812 3.476562 -4.984375 3.28125 -5.046875 C 3.082031 -5.117188 2.863281 -5.15625 2.625 -5.15625 L 1.890625 -5.15625 L 1.890625 -2.3125 Z M 2.625 -2.3125 "/></g></g></g><g fill="#545454" fill-opacity="1"><g transform="translate(132.44523, 290.245464)"><g/></g></g><g fill="#545454" fill-opacity="1"><g transform="translate(141.704321, 290.245464)"><g><path d="M 8.859375 -6.171875 C 8.921875 -6.171875 8.960938 -6.148438 8.984375 -6.109375 C 9.003906 -6.066406 9.003906 -6.019531 8.984375 -5.96875 L 6.328125 -0.09375 C 6.273438 0.03125 6.195312 0.09375 6.09375 0.09375 L 6.078125 0.09375 C 5.972656 0.09375 5.894531 0.03125 5.84375 -0.09375 L 4.578125 -2.8125 L 3.359375 -0.09375 C 3.296875 0.03125 3.21875 0.09375 3.125 0.09375 L 3.09375 0.09375 C 2.988281 0.09375 2.910156 0.03125 2.859375 -0.09375 L 0.21875 -5.953125 C 0.1875 -6.015625 0.179688 -6.066406 0.203125 -6.109375 C 0.234375 -6.148438 0.285156 -6.171875 0.359375 -6.171875 L 1.21875 -6.171875 C 1.269531 -6.171875 1.3125 -6.15625 1.34375 -6.125 C 1.382812 -6.09375 1.414062 -6.054688 1.4375 -6.015625 L 3.109375 -2.125 L 4.796875 -6.015625 C 4.816406 -6.054688 4.84375 -6.09375 4.875 -6.125 C 4.90625 -6.15625 4.945312 -6.171875 5 -6.171875 L 5.875 -6.171875 C 5.9375 -6.171875 5.976562 -6.148438 6 -6.109375 C 6.03125 -6.066406 6.03125 -6.019531 6 -5.96875 L 5.1875 -4.140625 L 6.09375 -1.96875 L 7.765625 -6.015625 C 7.785156 -6.054688 7.8125 -6.09375 7.84375 -6.125 C 7.882812 -6.15625 7.925781 -6.171875 7.96875 -6.171875 Z M 8.859375 -6.171875 "/></g></g></g><g fill="#545454" fill-opacity="1"><g transform="translate(157.543432, 290.245464)"><g><path d="M 1.875 -6.03125 L 1.875 -0.125 C 1.875 -0.0390625 1.828125 0 1.734375 0 L 0.875 0 C 0.78125 0 0.734375 -0.0390625 0.734375 -0.125 L 0.734375 -6.03125 C 0.734375 -6.125 0.78125 -6.171875 0.875 -6.171875 L 1.734375 -6.171875 C 1.828125 -6.171875 1.875 -6.125 1.875 -6.03125 Z M 1.875 -6.03125 "/></g></g></g><g fill="#545454" fill-opacity="1"><g transform="translate(166.802523, 290.245464)"><g><path d="M 0.234375 -5.34375 L 0.234375 -5.984375 C 0.234375 -6.109375 0.296875 -6.171875 0.421875 -6.171875 L 4.640625 -6.171875 C 4.691406 -6.171875 4.734375 -6.148438 4.765625 -6.109375 C 4.796875 -6.078125 4.8125 -6.035156 4.8125 -5.984375 L 4.8125 -5.34375 C 4.8125 -5.21875 4.753906 -5.15625 4.640625 -5.15625 L 3.09375 -5.15625 L 3.09375 -0.171875 C 3.09375 -0.0546875 3.035156 0 2.921875 0 L 2.125 0 C 2.007812 0 1.953125 -0.0546875 1.953125 -0.171875 L 1.953125 -5.15625 L 0.421875 -5.15625 C 0.367188 -5.15625 0.320312 -5.171875 0.28125 -5.203125 C 0.25 -5.234375 0.234375 -5.28125 0.234375 -5.34375 Z M 0.234375 -5.34375 "/></g></g></g><g fill="#545454" fill-opacity="1"><g transform="translate(178.503766, 290.245464)"><g><path d="M 5.953125 -6.171875 C 6.046875 -6.171875 6.09375 -6.125 6.09375 -6.03125 L 6.09375 -0.125 C 6.09375 -0.0390625 6.046875 0 5.953125 0 L 5.078125 0 C 4.992188 0 4.953125 -0.0390625 4.953125 -0.125 L 4.953125 -1.953125 L 1.890625 -1.953125 L 1.890625 -0.125 C 1.890625 -0.0390625 1.84375 0 1.75 0 L 0.875 0 C 0.78125 0 0.734375 -0.0390625 0.734375 -0.125 L 0.734375 -6.03125 C 0.734375 -6.125 0.78125 -6.171875 0.875 -6.171875 L 1.75 -6.171875 C 1.84375 -6.171875 1.890625 -6.125 1.890625 -6.03125 L 1.890625 -2.96875 L 4.953125 -2.96875 L 4.953125 -6.03125 C 4.953125 -6.125 4.992188 -6.171875 5.078125 -6.171875 Z M 5.953125 -6.171875 "/></g></g></g><g fill="#545454" fill-opacity="1"><g transform="translate(191.977802, 290.245464)"><g/></g></g><g fill="#545454" fill-opacity="1"><g transform="translate(201.236892, 290.245464)"><g><path d="M 4.671875 -1 C 4.753906 -1 4.796875 -0.957031 4.796875 -0.875 L 4.796875 -0.140625 C 4.796875 -0.046875 4.753906 0 4.671875 0 L 0.875 0 C 0.78125 0 0.734375 -0.046875 0.734375 -0.140625 L 0.734375 -6.03125 C 0.734375 -6.125 0.78125 -6.171875 0.875 -6.171875 L 1.75 -6.171875 C 1.84375 -6.171875 1.890625 -6.125 1.890625 -6.03125 L 1.890625 -1 Z M 4.671875 -1 "/></g></g></g><g fill="#545454" fill-opacity="1"><g transform="translate(212.840775, 290.245464)"><g><path d="M 1.875 -6.03125 L 1.875 -0.125 C 1.875 -0.0390625 1.828125 0 1.734375 0 L 0.875 0 C 0.78125 0 0.734375 -0.0390625 0.734375 -0.125 L 0.734375 -6.03125 C 0.734375 -6.125 0.78125 -6.171875 0.875 -6.171875 L 1.734375 -6.171875 C 1.828125 -6.171875 1.875 -6.125 1.875 -6.03125 Z M 1.875 -6.03125 "/></g></g></g><g fill="#545454" fill-opacity="1"><g transform="translate(222.099865, 290.245464)"><g><path d="M 6.09375 -6.171875 C 6.175781 -6.171875 6.21875 -6.128906 6.21875 -6.046875 L 6.21875 -0.109375 C 6.21875 -0.046875 6.203125 0 6.171875 0.03125 C 6.148438 0.0625 6.113281 0.078125 6.0625 0.078125 C 6.007812 0.078125 5.960938 0.0625 5.921875 0.03125 C 5.890625 0 5.851562 -0.03125 5.8125 -0.0625 L 1.890625 -3.796875 L 1.890625 -0.125 C 1.890625 -0.0390625 1.84375 0 1.75 0 L 0.875 0 C 0.78125 0 0.734375 -0.0390625 0.734375 -0.125 L 0.734375 -6.0625 C 0.734375 -6.113281 0.742188 -6.15625 0.765625 -6.1875 C 0.796875 -6.226562 0.835938 -6.25 0.890625 -6.25 L 0.90625 -6.25 C 0.945312 -6.25 0.984375 -6.234375 1.015625 -6.203125 C 1.046875 -6.171875 1.082031 -6.132812 1.125 -6.09375 L 5.078125 -2.359375 L 5.078125 -6.046875 C 5.078125 -6.128906 5.125 -6.171875 5.21875 -6.171875 Z M 6.09375 -6.171875 "/></g></g></g><g fill="#545454" fill-opacity="1"><g transform="translate(235.703706, 290.245464)"><g><path d="M 6.15625 -0.21875 C 6.1875 -0.15625 6.191406 -0.0976562 6.171875 -0.046875 C 6.160156 -0.00390625 6.125 0.015625 6.0625 0.015625 L 5.078125 0.015625 C 5.003906 0.015625 4.941406 -0.015625 4.890625 -0.078125 L 2.953125 -3.421875 L 1.890625 -2.359375 L 1.890625 -0.125 C 1.890625 -0.0390625 1.84375 0 1.75 0 L 0.875 0 C 0.78125 0 0.734375 -0.0390625 0.734375 -0.125 L 0.734375 -6.03125 C 0.734375 -6.125 0.78125 -6.171875 0.875 -6.171875 L 1.75 -6.171875 C 1.84375 -6.171875 1.890625 -6.125 1.890625 -6.03125 L 1.890625 -3.828125 L 4.1875 -6.046875 C 4.226562 -6.085938 4.265625 -6.117188 4.296875 -6.140625 C 4.335938 -6.160156 4.382812 -6.171875 4.4375 -6.171875 L 5.453125 -6.171875 C 5.515625 -6.171875 5.550781 -6.140625 5.5625 -6.078125 C 5.582031 -6.023438 5.570312 -5.976562 5.53125 -5.9375 L 3.78125 -4.234375 Z M 6.15625 -0.21875 "/></g></g></g><g fill="#545454" fill-opacity="1"><g transform="translate(248.65848, 290.245464)"><g><path d="M 0.734375 -2.390625 L 2.921875 -2.390625 C 3.015625 -2.390625 3.0625 -2.335938 3.0625 -2.234375 L 3.0625 -1.796875 C 3.0625 -1.742188 3.046875 -1.703125 3.015625 -1.671875 C 2.984375 -1.648438 2.945312 -1.640625 2.90625 -1.640625 L 0.734375 -1.640625 C 0.703125 -1.640625 0.664062 -1.648438 0.625 -1.671875 C 0.59375 -1.703125 0.578125 -1.742188 0.578125 -1.796875 L 0.578125 -2.21875 C 0.578125 -2.269531 0.59375 -2.3125 0.625 -2.34375 C 0.664062 -2.375 0.703125 -2.390625 0.734375 -2.390625 Z M 0.734375 -2.390625 "/></g></g></g><g fill="#545454" fill-opacity="1"><g transform="translate(258.956094, 290.245464)"><g><path d="M 7.34375 -0.1875 C 7.34375 -0.113281 7.328125 -0.0625 7.296875 -0.03125 C 7.265625 -0.0078125 7.21875 0 7.15625 0 L 6.375 0 C 6.320312 0 6.28125 -0.0078125 6.25 -0.03125 C 6.21875 -0.0625 6.195312 -0.109375 6.1875 -0.171875 L 5.890625 -3.1875 L 4.0625 -0.078125 C 4.03125 -0.015625 4 0.0234375 3.96875 0.046875 C 3.945312 0.078125 3.914062 0.09375 3.875 0.09375 L 3.859375 0.09375 C 3.804688 0.09375 3.769531 0.078125 3.75 0.046875 C 3.726562 0.0234375 3.695312 -0.015625 3.65625 -0.078125 L 1.828125 -3.171875 L 1.53125 -0.171875 C 1.53125 -0.109375 1.515625 -0.0625 1.484375 -0.03125 C 1.453125 -0.0078125 1.410156 0 1.359375 0 L 0.5625 0 C 0.5 0 0.453125 -0.0078125 0.421875 -0.03125 C 0.390625 -0.0625 0.378906 -0.113281 0.390625 -0.1875 L 0.984375 -6.109375 C 0.992188 -6.210938 1.046875 -6.265625 1.140625 -6.265625 L 1.15625 -6.265625 C 1.207031 -6.265625 1.242188 -6.25 1.265625 -6.21875 C 1.285156 -6.195312 1.304688 -6.160156 1.328125 -6.109375 L 3.859375 -1.8125 L 6.390625 -6.109375 C 6.421875 -6.160156 6.445312 -6.195312 6.46875 -6.21875 C 6.488281 -6.25 6.523438 -6.265625 6.578125 -6.265625 L 6.59375 -6.265625 C 6.675781 -6.265625 6.726562 -6.210938 6.75 -6.109375 Z M 7.34375 -0.1875 "/></g></g></g><g fill="#545454" fill-opacity="1"><g transform="translate(273.322611, 290.245464)"><g><path d="M 1.875 -6.03125 L 1.875 -0.125 C 1.875 -0.0390625 1.828125 0 1.734375 0 L 0.875 0 C 0.78125 0 0.734375 -0.0390625 0.734375 -0.125 L 0.734375 -6.03125 C 0.734375 -6.125 0.78125 -6.171875 0.875 -6.171875 L 1.734375 -6.171875 C 1.828125 -6.171875 1.875 -6.125 1.875 -6.03125 Z M 1.875 -6.03125 "/></g></g></g><g fill="#545454" fill-opacity="1"><g transform="translate(282.581702, 290.245464)"><g><path d="M 6.09375 -6.171875 C 6.175781 -6.171875 6.21875 -6.128906 6.21875 -6.046875 L 6.21875 -0.109375 C 6.21875 -0.046875 6.203125 0 6.171875 0.03125 C 6.148438 0.0625 6.113281 0.078125 6.0625 0.078125 C 6.007812 0.078125 5.960938 0.0625 5.921875 0.03125 C 5.890625 0 5.851562 -0.03125 5.8125 -0.0625 L 1.890625 -3.796875 L 1.890625 -0.125 C 1.890625 -0.0390625 1.84375 0 1.75 0 L 0.875 0 C 0.78125 0 0.734375 -0.0390625 0.734375 -0.125 L 0.734375 -6.0625 C 0.734375 -6.113281 0.742188 -6.15625 0.765625 -6.1875 C 0.796875 -6.226562 0.835938 -6.25 0.890625 -6.25 L 0.90625 -6.25 C 0.945312 -6.25 0.984375 -6.234375 1.015625 -6.203125 C 1.046875 -6.171875 1.082031 -6.132812 1.125 -6.09375 L 5.078125 -2.359375 L 5.078125 -6.046875 C 5.078125 -6.128906 5.125 -6.171875 5.21875 -6.171875 Z M 6.09375 -6.171875 "/></g></g></g><g fill="#545454" fill-opacity="1"><g transform="translate(296.185553, 290.245464)"><g><path d="M 0.734375 -0.171875 L 0.734375 -5.984375 C 0.734375 -6.035156 0.75 -6.078125 0.78125 -6.109375 C 0.820312 -6.148438 0.867188 -6.171875 0.921875 -6.171875 L 3.1875 -6.171875 C 3.550781 -6.171875 3.890625 -6.117188 4.203125 -6.015625 C 4.523438 -5.921875 4.8125 -5.78125 5.0625 -5.59375 C 5.320312 -5.414062 5.546875 -5.195312 5.734375 -4.9375 C 5.921875 -4.6875 6.0625 -4.398438 6.15625 -4.078125 C 6.257812 -3.765625 6.3125 -3.429688 6.3125 -3.078125 C 6.3125 -2.722656 6.257812 -2.390625 6.15625 -2.078125 C 6.0625 -1.765625 5.921875 -1.476562 5.734375 -1.21875 C 5.546875 -0.96875 5.320312 -0.75 5.0625 -0.5625 C 4.8125 -0.382812 4.523438 -0.242188 4.203125 -0.140625 C 3.878906 -0.046875 3.535156 0 3.171875 0 L 0.921875 0 C 0.867188 0 0.820312 -0.015625 0.78125 -0.046875 C 0.75 -0.078125 0.734375 -0.117188 0.734375 -0.171875 Z M 1.890625 -1.09375 L 3.171875 -1.09375 C 3.453125 -1.09375 3.710938 -1.140625 3.953125 -1.234375 C 4.203125 -1.335938 4.414062 -1.476562 4.59375 -1.65625 C 4.769531 -1.84375 4.90625 -2.054688 5 -2.296875 C 5.101562 -2.546875 5.15625 -2.804688 5.15625 -3.078125 C 5.15625 -3.359375 5.101562 -3.617188 5 -3.859375 C 4.90625 -4.109375 4.769531 -4.328125 4.59375 -4.515625 C 4.414062 -4.703125 4.207031 -4.84375 3.96875 -4.9375 C 3.726562 -5.039062 3.46875 -5.09375 3.1875 -5.09375 L 1.890625 -5.09375 Z M 1.890625 -1.09375 "/></g></g></g><g fill="#545454" fill-opacity="1"><g transform="translate(309.505433, 290.245464)"><g><path d="M 5.203125 -1.09375 C 5.273438 -1.09375 5.332031 -1.070312 5.375 -1.03125 C 5.425781 -0.988281 5.453125 -0.929688 5.453125 -0.859375 L 5.453125 -0.171875 C 5.453125 -0.117188 5.429688 -0.078125 5.390625 -0.046875 C 5.359375 -0.015625 5.316406 0 5.265625 0 L 0.921875 0 C 0.796875 0 0.734375 -0.0546875 0.734375 -0.171875 L 0.734375 -5.984375 C 0.734375 -6.109375 0.796875 -6.171875 0.921875 -6.171875 L 5.171875 -6.171875 C 5.234375 -6.171875 5.28125 -6.148438 5.3125 -6.109375 C 5.34375 -6.078125 5.359375 -6.035156 5.359375 -5.984375 L 5.359375 -5.265625 C 5.359375 -5.140625 5.296875 -5.078125 5.171875 -5.078125 L 1.890625 -5.078125 L 1.890625 -3.375 L 4.453125 -3.375 C 4.523438 -3.375 4.578125 -3.359375 4.609375 -3.328125 C 4.648438 -3.296875 4.671875 -3.25 4.671875 -3.1875 L 4.671875 -2.515625 C 4.671875 -2.453125 4.648438 -2.40625 4.609375 -2.375 C 4.578125 -2.34375 4.523438 -2.328125 4.453125 -2.328125 L 1.890625 -2.328125 L 1.890625 -1.09375 Z M 5.203125 -1.09375 "/></g></g></g><g fill="#545454" fill-opacity="1"><g transform="translate(322.00991, 290.245464)"><g><path d="M 0.734375 -0.171875 L 0.734375 -5.984375 C 0.734375 -6.035156 0.75 -6.078125 0.78125 -6.109375 C 0.820312 -6.148438 0.867188 -6.171875 0.921875 -6.171875 L 3.1875 -6.171875 C 3.550781 -6.171875 3.890625 -6.117188 4.203125 -6.015625 C 4.523438 -5.921875 4.8125 -5.78125 5.0625 -5.59375 C 5.320312 -5.414062 5.546875 -5.195312 5.734375 -4.9375 C 5.921875 -4.6875 6.0625 -4.398438 6.15625 -4.078125 C 6.257812 -3.765625 6.3125 -3.429688 6.3125 -3.078125 C 6.3125 -2.722656 6.257812 -2.390625 6.15625 -2.078125 C 6.0625 -1.765625 5.921875 -1.476562 5.734375 -1.21875 C 5.546875 -0.96875 5.320312 -0.75 5.0625 -0.5625 C 4.8125 -0.382812 4.523438 -0.242188 4.203125 -0.140625 C 3.878906 -0.046875 3.535156 0 3.171875 0 L 0.921875 0 C 0.867188 0 0.820312 -0.015625 0.78125 -0.046875 C 0.75 -0.078125 0.734375 -0.117188 0.734375 -0.171875 Z M 1.890625 -1.09375 L 3.171875 -1.09375 C 3.453125 -1.09375 3.710938 -1.140625 3.953125 -1.234375 C 4.203125 -1.335938 4.414062 -1.476562 4.59375 -1.65625 C 4.769531 -1.84375 4.90625 -2.054688 5 -2.296875 C 5.101562 -2.546875 5.15625 -2.804688 5.15625 -3.078125 C 5.15625 -3.359375 5.101562 -3.617188 5 -3.859375 C 4.90625 -4.109375 4.769531 -4.328125 4.59375 -4.515625 C 4.414062 -4.703125 4.207031 -4.84375 3.96875 -4.9375 C 3.726562 -5.039062 3.46875 -5.09375 3.1875 -5.09375 L 1.890625 -5.09375 Z M 1.890625 -1.09375 "/></g></g></g></svg>